name analog
datacolumns 19
datarows 56
range 0.0 0.0275
endheader
time	ground_force_vx	ground_force_vy	ground_force_vz	ground_force_px	ground_force_py	ground_force_pz	l_ground_force_vx	l_ground_force_vy	l_ground_force_vz	l_ground_force_px	l_ground_force_py	l_ground_force_pz	ground_torque_x	ground_torque_y	ground_torque_z	l_ground_torque_x	l_ground_torque_y	l_ground_torque_z
0.0	-0.0	-0.0	-0.0	4.323840141296387	77.14523315429688	-689.0540771484375	-6.0323333740234375	-8.467801094055176	-196.22320556640625	-0.0	-0.0	-0.0	-0.0	-0.0	-0.0	54927.48046875	-7455.2197265625	-2753.156005859375
0.0005	-0.0	-0.0	-0.0	4.454670429229736	77.21686553955078	-690.4203491210938	-6.523082733154297	-8.873501777648926	-193.54867553710935	-0.0	-0.0	-0.0	-0.0	-0.0	-0.0	54789.05078125	-7404.82421875	-2737.88427734375
0.001	-0.0	-0.0	-0.0	5.091004848480225	77.56144714355469	-688.6770629882812	-6.96088171005249	-8.926295280456543	-194.24549865722656	-0.0	-0.0	-0.0	-0.0	-0.0	-0.0	54400.53125	-7436.40380859375	-2916.243408203125
0.0015	-0.0	-0.0	-0.0	5.382015228271484	77.63866424560547	-690.2299194335938	-6.931265830993652	-9.220787048339844	-194.29124450683597	-0.0	-0.0	-0.0	-0.0	-0.0	-0.0	54262.77734375	-7136.193359375	-2926.2138671875
0.002	-0.0	-0.0	-0.0	5.358800888061523	77.76935577392578	-689.2428588867188	-6.878082752227783	-9.71538543701172	-194.2674865722656	-0.0	-0.0	-0.0	-0.0	-0.0	-0.0	54474.90234375	-6993.669921875	-2999.4189453125
0.0025	-0.0	-0.0	-0.0	5.317506790161133	77.6866226196289	-687.6163330078125	-7.6062750816345215	-9.750370979309082	-195.0132598876953	-0.0	-0.0	-0.0	-0.0	-0.0	-0.0	54451.1015625	-7083.91064453125	-2976.344482421875
0.003	-0.0	-0.0	-0.0	5.406891345977783	77.8237075805664	-687.0988159179688	-7.936485767364502	-10.29259204864502	-195.5741729736328	-0.0	-0.0	-0.0	-0.0	-0.0	-0.0	54785.58984375	-7168.294921875	-3189.817626953125
0.0035	-0.0	-0.0	-0.0	5.276533126831055	77.61947631835938	-684.6263427734375	-7.705082893371582	-10.6459379196167	-198.08078002929688	-0.0	-0.0	-0.0	-0.0	-0.0	-0.0	55467.26171875	-6909.666015625	-3156.83740234375
0.004	-0.0	-0.0	-0.0	5.084999084472656	77.53678131103516	-681.473876953125	-7.717838287353516	-10.973429679870604	-198.9397735595703	-0.0	-0.0	-0.0	-0.0	-0.0	-0.0	55801.7421875	-7012.1240234375	-3216.333984375
0.0045000000000000005	-0.0	-0.0	-0.0	5.270173072814941	77.31050872802734	-679.08203125	-7.499347686767578	-11.346064567565918	-201.9454040527344	-0.0	-0.0	-0.0	-0.0	-0.0	-0.0	56494.3828125	-7196.4697265625	-3255.32861328125
0.005	-0.0	-0.0	-0.0	5.002692222595215	76.9813461303711	-675.7152099609375	-7.594856739044189	-11.875920295715332	-205.11334228515625	-0.0	-0.0	-0.0	-0.0	-0.0	-0.0	57501.2890625	-7294.7685546875	-3285.17041015625
0.0055	-0.0	-0.0	-0.0	5.181230068206787	76.3026351928711	-670.58154296875	-7.178734302520752	-12.004940032958984	-210.1085205078125	-0.0	-0.0	-0.0	-0.0	-0.0	-0.0	58766.12890625	-7395.880859375	-3211.87109375
0.006	-0.0	-0.0	-0.0	5.414993762969971	75.99431610107422	-666.34423828125	-6.953414440155029	-12.242890357971191	-214.75547790527344	-0.0	-0.0	-0.0	-0.0	-0.0	-0.0	60036.796875	-7552.3798828125	-3166.117919921875
0.006500000000000001	-0.0	-0.0	-0.0	5.379100799560547	75.47895050048828	-662.1075439453125	-7.082719802856445	-12.202473640441896	-219.2115478515625	-0.0	-0.0	-0.0	-0.0	-0.0	-0.0	61434.39453125	-7782.009765625	-3230.23193359375
0.007	-0.0	-0.0	-0.0	5.564600944519043	75.1181411743164	-654.7503051757812	-6.523836135864258	-12.792332649230955	-225.36322021484372	-0.0	-0.0	-0.0	-0.0	-0.0	-0.0	63487.58203125	-7924.060546875	-3049.65478515625
0.0075	-0.0	-0.0	-0.0	5.34514045715332	74.3014144897461	-649.6300048828125	-6.5312018394470215	-12.663250923156738	-232.98681640625	-0.0	-0.0	-0.0	-0.0	-0.0	-0.0	65029.16796875	-8007.39404296875	-3131.31005859375
0.008	-0.0	-0.0	-0.0	6.137533664703369	73.33153533935547	-642.53564453125	-6.427822113037109	-13.215171813964844	-238.47055053710935	-0.0	-0.0	-0.0	-0.0	-0.0	-0.0	66601.09375	-8295.9736328125	-3335.26220703125
0.0085	-0.0	-0.0	-0.0	5.783241271972656	72.98023986816406	-636.3080444335938	-6.871317863464356	-13.296165466308594	-244.5773162841797	-0.0	-0.0	-0.0	-0.0	-0.0	-0.0	68384.3046875	-8520.1162109375	-3430.680908203125
0.009000000000000001	-0.0	-0.0	-0.0	6.0256452560424805	72.25198364257812	-630.6183471679688	-6.597424983978272	-13.60919189453125	-250.7210998535156	-0.0	-0.0	-0.0	-0.0	-0.0	-0.0	70250.4140625	-8629.833984375	-3511.7724609375
0.0095	-0.0	-0.0	-0.0	6.293317794799805	71.36961364746094	-622.8800659179688	-6.475887298583984	-13.866504669189451	-258.31103515625	-0.0	-0.0	-0.0	-0.0	-0.0	-0.0	72261.78125	-9034.6650390625	-3484.014892578125
0.01	-0.0	-0.0	-0.0	6.779998779296875	70.4371109008789	-614.6937255859375	-6.468036651611328	-14.436687469482422	-266.2126770019531	-0.0	-0.0	-0.0	-0.0	-0.0	-0.0	73973.3828125	-9275.072265625	-3489.853759765625
0.0105	-0.0	-0.0	-0.0	6.958419799804688	69.56218719482422	-606.9235229492188	-6.596952438354492	-14.733790397644045	-273.0680847167969	-0.0	-0.0	-0.0	-0.0	-0.0	-0.0	76196.5	-9777.4970703125	-3522.28515625
0.011	-0.0	-0.0	-0.0	7.315261840820312	68.75995635986328	-601.1451416015625	-6.419357299804688	-14.75780200958252	-281.60675048828125	-0.0	-0.0	-0.0	-0.0	-0.0	-0.0	78412.375	-9966.4501953125	-3543.7626953125
0.0115	-0.0	-0.0	-0.0	7.712496757507324	67.86859130859375	-594.881591796875	-6.41188383102417	-15.496356010437012	-291.0664978027344	-0.0	-0.0	-0.0	-0.0	-0.0	-0.0	80770.40625	-10418.1708984375	-3500.90576171875
0.012	-0.0	-0.0	-0.0	8.49825668334961	66.7501449584961	-587.7590942382812	-5.895092487335205	-15.729572296142578	-298.0769348144531	-0.0	-0.0	-0.0	-0.0	-0.0	-0.0	83062.6484375	-10636.7421875	-3370.86865234375
0.0125	-0.0	-0.0	-0.0	8.400214195251465	65.77824401855469	-580.8786010742188	-5.105086326599121	-16.251190185546875	-306.52197265625	-0.0	-0.0	-0.0	-0.0	-0.0	-0.0	85635.8984375	-11251.626953125	-3308.92578125
0.013000000000000001	-0.0	-0.0	-0.0	9.094346046447754	64.75762176513672	-573.1907958984375	-4.555732250213623	-17.231273651123047	-315.56549072265625	-0.0	-0.0	-0.0	-0.0	-0.0	-0.0	88313.5078125	-11590.3984375	-3189.326416015625
0.0135	-0.0	-0.0	-0.0	9.505364418029783	63.29146957397461	-562.68603515625	-4.120702266693115	-17.872150421142578	-325.3408203125	-0.0	-0.0	-0.0	-0.0	-0.0	-0.0	90857.984375	-12108.169921875	-3089.62158203125
0.014	-0.0	-0.0	-0.0	9.790983200073242	61.976749420166016	-556.7703857421875	-3.960800886154175	-19.086225509643555	-335.185546875	-0.0	-0.0	-0.0	-0.0	-0.0	-0.0	93156.984375	-12434.42578125	-3014.16064453125
0.0145	-0.0	-0.0	-0.0	10.240961074829102	59.815616607666016	-545.5767211914062	-3.872315168380737	-19.95180892944336	-345.46795654296875	-0.0	-0.0	-0.0	-0.0	-0.0	-0.0	96043.6953125	-13098.779296875	-2987.564453125
0.015	-0.0	-0.0	-0.0	10.29921054840088	58.48794174194336	-536.127197265625	-3.89426064491272	-21.218929290771484	-354.03973388671875	-0.0	-0.0	-0.0	-0.0	-0.0	-0.0	98522.9296875	-13286.6416015625	-2968.534912109375
0.0155	-0.0	-0.0	-0.0	10.237960815429688	56.56724166870117	-525.6898193359375	-3.371009826660156	-22.817493438720703	-366.380615234375	-0.0	-0.0	-0.0	-0.0	-0.0	-0.0	101326.6015625	-13655.5595703125	-2842.638427734375
0.016	-0.0	-0.0	-0.0	9.902366638183594	55.10152053833008	-516.619384765625	-2.9552950859069824	-24.63509559631348	-375.8434753417969	-0.0	-0.0	-0.0	-0.0	-0.0	-0.0	104044.765625	-14015.412109375	-2724.170166015625
0.0165	-0.0	-0.0	-0.0	9.794038772583008	53.64536285400391	-507.3997497558594	-2.523575782775879	-26.10371971130371	-384.9580993652344	-0.0	-0.0	-0.0	-0.0	-0.0	-0.0	106788.640625	-14474.6162109375	-2602.462890625
0.017	-0.0	-0.0	-0.0	9.288515090942385	52.27983474731445	-498.1795349121094	-2.040348052978516	-27.526412963867188	-394.39154052734375	-0.0	-0.0	-0.0	-0.0	-0.0	-0.0	109146.4765625	-14788.392578125	-2295.7548828125
0.0175	-0.0	-0.0	-0.0	9.04995346069336	50.53694152832031	-488.408935546875	-1.5177125930786133	-29.13656997680664	-404.7465515136719	-0.0	-0.0	-0.0	-0.0	-0.0	-0.0	111509.71875	-15138.1396484375	-2223.281005859375
0.018000000000000002	-0.0	-0.0	-0.0	8.930960655212402	49.68524169921875	-480.2462158203125	-1.0444549322128296	-30.30400848388672	-412.4627380371094	-0.0	-0.0	-0.0	-0.0	-0.0	-0.0	113817.0234375	-15426.80078125	-2032.0902099609373
0.0185	-0.0	-0.0	-0.0	9.23831844329834	48.6946907043457	-471.14202880859375	-0.4238542914390564	-31.14809799194336	-420.9604187011719	-0.0	-0.0	-0.0	-0.0	-0.0	-0.0	115850.0	-15500.2021484375	-2048.436279296875
0.019	-0.0	-0.0	-0.0	8.830801010131836	47.69490051269531	-464.7044677734375	-0.2561879158020019	-32.14909362792969	-427.2457275390625	-0.0	-0.0	-0.0	-0.0	-0.0	-0.0	117501.4609375	-15612.146484375	-1877.1826171875
0.0195	-0.0	-0.0	-0.0	9.178403854370115	47.31797409057617	-458.62451171875	-0.4828695356845855	-32.67902374267578	-431.0475158691406	-0.0	-0.0	-0.0	-0.0	-0.0	-0.0	118765.8828125	-15695.1064453125	-1805.0035400390625
0.02	-0.0	-0.0	-0.0	9.149282455444336	47.38841247558594	-452.973876953125	-0.1483824551105499	-32.95415496826172	-435.38580322265625	-0.0	-0.0	-0.0	-0.0	-0.0	-0.0	120052.5234375	-15804.373046875	-1795.1470947265625
0.0205	-0.0	-0.0	-0.0	8.999768257141113	47.427860260009766	-449.4837951660156	-0.1774215698242187	-33.07133102416992	-439.8091430664063	-0.0	-0.0	-0.0	-0.0	-0.0	-0.0	121023.0234375	-15695.2451171875	-1857.34912109375
0.021	-0.0	-0.0	-0.0	9.545524597167969	47.46397018432617	-445.0910034179688	-0.3939602375030517	-32.777774810791016	-443.6177673339844	-0.0	-0.0	-0.0	-0.0	-0.0	-0.0	122104.53125	-15545.5234375	-1969.9356689453125
0.021500000000000002	-0.0	-0.0	-0.0	10.130772590637209	47.78464889526367	-439.4410400390625	-0.1098261475563049	-32.4739875793457	-447.10943603515625	-0.0	-0.0	-0.0	-0.0	-0.0	-0.0	123152.1796875	-15754.8232421875	-1899.7642822265625
0.022	-0.0	-0.0	-0.0	10.816156387329102	47.61312103271485	-435.4708862304688	0.1667818576097488	-31.877042770385746	-449.8889465332031	-0.0	-0.0	-0.0	-0.0	-0.0	-0.0	124494.265625	-15641.1787109375	-2038.18603515625
0.0225	-0.0	-0.0	-0.0	11.055974006652832	48.06937789916992	-428.93450927734375	0.1102901250123977	-30.856494903564453	-454.7912292480469	-0.0	-0.0	-0.0	-0.0	-0.0	-0.0	125502.7265625	-15980.693359375	-2110.2978515625
0.023	-0.0	-0.0	-0.0	11.22369384765625	48.0692024230957	-423.9038696289063	0.2163241505622863	-29.82485580444336	-458.5892028808594	-0.0	-0.0	-0.0	-0.0	-0.0	-0.0	126739.6484375	-15843.408203125	-2080.2578125
0.0235	-0.0	-0.0	-0.0	11.78701877593994	47.60686111450195	-418.717041015625	0.4713701605796814	-29.173851013183597	-463.2581176757813	-0.0	-0.0	-0.0	-0.0	-0.0	-0.0	127998.3125	-16177.1923828125	-2218.88916015625
0.024	-0.0	-0.0	-0.0	11.725510597229004	47.48384094238281	-412.2059020996094	0.2661323547363281	-28.897628784179688	-466.4227600097656	-0.0	-0.0	-0.0	-0.0	-0.0	-0.0	129272.734375	-16522.19921875	-2152.206787109375
0.0245	-0.0	-0.0	-0.0	11.714040756225586	47.61166000366211	-406.6640930175781	0.4986005425453186	-28.792869567871094	-470.897216796875	-0.0	-0.0	-0.0	-0.0	-0.0	-0.0	130359.21875	-16522.84375	-2176.18603515625
0.025	-0.0	-0.0	-0.0	11.880657196044922	47.01050567626953	-402.5173034667969	0.2934307157993316	-28.76569175720215	-475.741455078125	-0.0	-0.0	-0.0	-0.0	-0.0	-0.0	131400.46875	-16874.583984375	-2113.24462890625
0.025500000000000002	-0.0	-0.0	-0.0	12.248903274536133	46.36316680908203	-398.1118469238281	0.1273227781057357	-28.60478973388672	-479.6438903808594	-0.0	-0.0	-0.0	-0.0	-0.0	-0.0	132674.09375	-16908.060546875	-2231.97802734375
0.026000000000000002	-0.0	-0.0	-0.0	12.52818775177002	45.95260620117188	-391.2633666992188	0.0771414339542388	-28.501022338867188	-481.4193420410156	-0.0	-0.0	-0.0	-0.0	-0.0	-0.0	133717.296875	-17218.8984375	-2152.024169921875
0.0265	-0.0	-0.0	-0.0	13.366791725158691	44.945556640625	-386.4620056152344	0.0384957380592823	-28.577899932861328	-485.623779296875	-0.0	-0.0	-0.0	-0.0	-0.0	-0.0	134628.8125	-17649.98046875	-2138.007080078125
0.027	-0.0	-0.0	-0.0	13.815584182739258	44.885623931884766	-382.5415649414063	0.6209754943847656	-28.601524353027344	-489.26611328125	-0.0	-0.0	-0.0	-0.0	-0.0	-0.0	135473.40625	-17808.845703125	-1998.271484375
0.0275	-0.0	-0.0	-0.0	14.298013687133787	43.661746978759766	-377.4450073242188	0.9254852533340454	-28.78096580505371	-493.6533508300781	-0.0	-0.0	-0.0	-0.0	-0.0	-0.0	136494.40625	-18205.859375	-1896.3155517578125
